<svg xmlns="http://www.w3.org/2000/svg" xmlns:xlink="http://www.w3.org/1999/xlink" viewBox="0 0 1150 1150"><defs><linearGradient id="linear-gradient" x1="578.74" y1="-443.11" x2="457.59" y2="-58.16" gradientTransform="matrix(-1, 0, 0, 1, 1078.91, 900)" gradientUnits="userSpaceOnUse"><stop offset="0" stop-color="#111827"/><stop offset="1" stop-color="#fff" stop-opacity="0"/></linearGradient><linearGradient id="linear-gradient-2" x1="631.19" y1="-277.4" x2="562.38" y2="34.08" xlink:href="#linear-gradient"/><linearGradient id="linear-gradient-3" x1="684.74" y1="-650.8" x2="684.74" y2="-202.44" gradientTransform="matrix(-1, 0, 0, 1, 1078.91, 900)" gradientUnits="userSpaceOnUse"><stop offset="0" stop-color="#111627" stop-opacity="0"/><stop offset="1" stop-color="#fff"/></linearGradient><linearGradient id="linear-gradient-4" x1="408.34" y1="-599.12" x2="408.34" y2="-137.85" gradientTransform="matrix(-1, 0, 0, 1, 1078.91, 900)" gradientUnits="userSpaceOnUse"><stop offset="0" stop-color="#111827" stop-opacity="0"/><stop offset="1" stop-color="#fff"/></linearGradient></defs><path d="M774.32,704.7c-145.1,150-204.5,77.4-326.5-30.7-70.4-62.5-142,72.8-250.2,266.5v386.4L1149,777.8c2.9-71.1,0-90.6,0-90.6-6.5-1.2-20.2-82-117.8,2.8C914,791.8,860.32,615.8,774.32,704.7Z" opacity="0.3" fill="url(#linear-gradient)" style="isolation:isolate"/><path d="M642.42,730.5c-109.1,94.1-140.7,160.1-226.9,128.5-88-32.3-189.5-73.9-343.5,149.7v386.4L1023.42,846c2.9-71.1,0-90.6,0-90.6-6.6-1.3-20.3-82-117.9,2.8C788.32,860,732.12,653.1,642.42,730.5Z" opacity="0.3" fill="url(#linear-gradient-2)" style="isolation:isolate"/><path d="M394.22,677.4c5.7-3.3,10.4-12.4,10.4-20.4s-4.7-11.7-10.4-8.4-10.4,12.4-10.4,20.4S388.52,680.7,394.22,677.4Z" fill="#14b8a6"/><path d="M670.52,730.5c6-3.4,10.8-12.4,10.8-20.1s-4.8-11.1-10.8-7.7-10.8,12.4-10.8,20.1S664.52,733.9,670.52,730.5Z" fill="#f2c94c"/><path d="M450.42,520.1,265.82,626.6V263.8l184.6-106.5Z" fill="#111827" opacity="0.07" style="isolation:isolate"/><path d="M301.82,657.8l79.8-45.9,12.5,10.2,12.6-24.8,79.8-46-.1-362.8L301.82,295Z" opacity="0.3" fill="url(#linear-gradient-3)" style="isolation:isolate"/><path d="M389.82,371.2v88.5c-8.3,4.9-16.7,7.4-24.4,7.4a32.19,32.19,0,0,1-20.7-7.2c-5.9-4.8-10.6-11.8-13.8-20.7a92.36,92.36,0,0,1-4.9-31.1Z" fill="#111827" opacity="0.1" style="isolation:isolate"/><path d="M389.82,371.3l55.3-76.2c5.6,10.2,8.6,23.8,8.6,39.3s-3,32.5-8.6,49.2a172.7,172.7,0,0,1-23.4,45.9c-9.7,13.4-20.7,23.8-31.9,30.3Z" fill="#111827" opacity="0.3" style="isolation:isolate"/><path d="M389.92,371.3l55.3-76.2c-7.1-12.8-17.9-19.7-30.9-19.7s-27.5,7-41,19.9-25.5,30.9-34.1,51.3-13.2,42-13.2,61.5Z" fill="#14b8a6"/><path d="M462.32,477.2l-112.5,64.9V528.5l112.5-64.9Z" fill="#111827" opacity="0.15" style="isolation:isolate"/><path d="M462.32,503.8l-136.4,78.7V568.9l136.4-78.7Z" fill="#111827" opacity="0.15" style="isolation:isolate"/><path d="M462.32,530.4l-88.4,51V567.8l88.4-51Z" fill="#111827" opacity="0.15" style="isolation:isolate"/><path d="M727.32,574.3,542.72,680.8V318l184.6-106.5Z" fill="#111827" opacity="0.07" style="isolation:isolate"/><path d="M578.22,712.2,658,666.3l12.5,10.2L683,651.8l79.9-46-.1-362.9L578.22,349.4Z" opacity="0.3" fill="url(#linear-gradient-4)" style="isolation:isolate"/><path d="M666.32,425.7l-31.9,95.1c-9.7-2.2-17.8-8.7-23.4-18.9s-8.6-23.8-8.6-39.3Z" fill="#111827" opacity="0.1" style="isolation:isolate"/><path d="M666.22,425.8l45.2,36.5c-9.9,19.5-22.8,35.9-36.8,46.4s-28.1,14.8-40.3,12.1Z" fill="#111827" opacity="0.3" style="isolation:isolate"/><path d="M666.12,425.6l45.2,36.5a173.12,173.12,0,0,0,16-46.1c3-15.7,3.6-30.7,1.5-43.8s-6.6-23.8-13.3-31.2a32.48,32.48,0,0,0-24.9-11.2c-9.7,0-20.3,3.9-30.7,11.4s-20.5,18.3-29.2,31.4a176.86,176.86,0,0,0-20.8,43.9,156.62,156.62,0,0,0-7.5,46.1Z" fill="#f2c94c"/><path d="M738.72,531.7,611,605.4V591.8l127.7-73.7Z" fill="#111827" opacity="0.15" style="isolation:isolate"/><path d="M738.72,558.2l-132.6,76.6V621.2l132.6-76.6Z" fill="#111827" opacity="0.15" style="isolation:isolate"/><path d="M738.72,584.8l-88.4,51V622.2l88.4-51Z" fill="#111827" opacity="0.15" style="isolation:isolate"/></svg>