<svg id="Layer_1" data-name="Layer 1" xmlns="http://www.w3.org/2000/svg" xmlns:xlink="http://www.w3.org/1999/xlink" viewBox="0 0 1150 1150"><defs><style>.cls-1,.cls-10,.cls-2,.cls-6,.cls-8{opacity:0.3;}.cls-1,.cls-10,.cls-2,.cls-5,.cls-6,.cls-7,.cls-8,.cls-9{isolation:isolate;}.cls-1{fill:url(#linear-gradient);}.cls-2{fill:url(#linear-gradient-2);}.cls-3{fill:#14b8a6;}.cls-4{fill:#f2c94c;}.cls-5,.cls-7,.cls-8,.cls-9{fill:#111827;}.cls-5{opacity:0.07;}.cls-6{fill:url(#linear-gradient-3);}.cls-7{opacity:0.1;}.cls-9{opacity:0.15;}.cls-10{fill:url(#linear-gradient-4);}</style><linearGradient id="linear-gradient" x1="650.45" y1="693.11" x2="529.3" y2="308.16" gradientTransform="matrix(1, 0, 0, -1, 0, 1150)" gradientUnits="userSpaceOnUse"><stop offset="0" stop-color="#111827"/><stop offset="1" stop-color="#fff" stop-opacity="0"/></linearGradient><linearGradient id="linear-gradient-2" x1="702.9" y1="527.4" x2="634.09" y2="215.92" xlink:href="#linear-gradient"/><linearGradient id="linear-gradient-3" x1="756.45" y1="900.8" x2="756.45" y2="452.44" gradientTransform="matrix(1, 0, 0, -1, 0, 1150)" gradientUnits="userSpaceOnUse"><stop offset="0" stop-color="#111627" stop-opacity="0"/><stop offset="1" stop-color="#fff"/></linearGradient><linearGradient id="linear-gradient-4" x1="480.05" y1="849.12" x2="480.05" y2="387.85" gradientTransform="matrix(1, 0, 0, -1, 0, 1150)" gradientUnits="userSpaceOnUse"><stop offset="0" stop-color="#111827" stop-opacity="0"/><stop offset="1" stop-color="#fff"/></linearGradient></defs><path class="cls-1" d="M119.4,690C21.8,605.2,8.1,686,1.6,687.2c0,0-2.9,19.5,0,90.6L953,1326.9V940.5C844.8,746.8,773.2,611.5,702.8,674c-122,108.1-181.4,180.7-326.5,30.7C290.3,615.8,236.6,791.8,119.4,690Z"/><path class="cls-2" d="M245.1,758.2c-97.6-84.8-111.3-4.1-117.9-2.8,0,0-2.9,19.5,0,90.6l951.4,549.1V1008.7c-154-223.6-255.5-182-343.5-149.7-86.2,31.6-117.8-34.4-226.9-128.5C418.5,653.1,362.3,860,245.1,758.2Z"/><path class="cls-3" d="M766.8,669c0-8-4.7-17.1-10.4-20.4S746,649,746,657s4.7,17.1,10.4,20.4S766.8,677,766.8,669Z"/><path class="cls-4" d="M490.9,722.8c0-7.7-4.8-16.7-10.8-20.1s-10.8,0-10.8,7.7,4.8,16.7,10.8,20.1S490.9,730.5,490.9,722.8Z"/><path class="cls-5" d="M700.2,157.3,884.8,263.8V626.6L700.2,520.1Z"/><path class="cls-6" d="M848.8,295,664.2,188.5l-.1,362.8,79.8,46,12.6,24.8L769,611.9l79.8,45.9Z"/><path class="cls-7" d="M824.6,408.1a92.69,92.69,0,0,1-4.9,31.1c-3.2,8.9-7.9,15.9-13.8,20.7a32.2,32.2,0,0,1-20.7,7.2c-7.7,0-16.1-2.5-24.4-7.4V371.2Z"/><path class="cls-8" d="M760.8,459.8c-11.2-6.5-22.2-16.9-31.9-30.3a172.68,172.68,0,0,1-23.4-45.9c-5.6-16.7-8.6-33.7-8.6-49.2s3-29.1,8.6-39.3l55.3,76.2Z"/><path class="cls-3" d="M824.6,408.1c0-19.5-4.6-41.1-13.2-61.5s-20.6-38.4-34.1-51.3-28-19.9-41-19.9-23.8,6.9-30.9,19.7l55.3,76.2Z"/><path class="cls-9" d="M688.3,463.6l112.5,64.9v13.6L688.3,477.2Z"/><path class="cls-9" d="M688.3,490.2l136.4,78.7v13.6L688.3,503.8Z"/><path class="cls-9" d="M688.3,516.8l88.4,51v13.6l-88.4-51Z"/><path class="cls-5" d="M423.3,211.5,607.9,318V680.8L423.3,574.3Z"/><path class="cls-10" d="M572.4,349.4,387.8,242.9l-.1,362.9,79.9,46,12.5,24.7,12.5-10.2,79.8,45.9Z"/><path class="cls-7" d="M548.2,462.6c0,15.5-3,29.1-8.6,39.3s-13.7,16.7-23.4,18.9l-31.9-95.1Z"/><path class="cls-8" d="M516.3,520.8c-12.2,2.7-26.3-1.6-40.3-12.1s-26.9-26.9-36.8-46.4l45.2-36.5Z"/><path class="cls-4" d="M548.2,462.6a156.78,156.78,0,0,0-7.5-46.1,177.3,177.3,0,0,0-20.8-43.9c-8.7-13.1-18.8-23.9-29.2-31.4s-21-11.4-30.7-11.4A32.48,32.48,0,0,0,435.1,341c-6.7,7.4-11.2,18.1-13.3,31.2s-1.5,28.1,1.5,43.8a173,173,0,0,0,16,46.1l45.2-36.5Z"/><path class="cls-9" d="M411.9,518.1l127.7,73.7v13.6L411.9,531.7Z"/><path class="cls-9" d="M411.9,544.6l132.6,76.6v13.6L411.9,558.2Z"/><path class="cls-9" d="M411.9,571.2l88.4,51v13.6l-88.4-51Z"/></svg>