<svg xmlns="http://www.w3.org/2000/svg" viewBox="0 0 500 102.5"><path d="M453.5,89.1a21.9,21.9,0,0,1,3.6.3l-.8-1.3,2.2.2C457.5,90.4,455.2,89.8,453.5,89.1Zm-4.4-1,2,.8a3.2,3.2,0,0,1,1.9-1.7,30.3,30.3,0,0,0-6.7-1.1l1,1.1h-2.5a9.7,9.7,0,0,0,.1,1.7c1.4.3,2.5-.2,2.7-1.8l3.7.2v.8Zm9.7.7c.5.8,1,.8,1.4,0S459.2,88,458.8,88.8ZM15.4,16.1c-.8-.6-1.3-.4-1.4.5S15.3,17,15.4,16.1Zm444.8,79c.1,2.2,2-.9,0,0Zm-2.3-2.4-5-.8,2.4,1.6c-1.5,1-2.8-.1-4-.9l-.9,1.6a47.1,47.1,0,0,0,6.5-.2l-.5,1.5,2.3-1.3-1.9.2Zm33.8-14.1,3.2.2.5-.3h.1l.5-.3.8,1.3,2.8-1.3a11.8,11.8,0,0,0-3.7-.9c-1-1.1-2.5-1.1-3.8-1.2h0l.3,1.8-.8-.2ZM461.8,91.2l2.5-1,.7.9,1.2-1-3.2-1Zm5.2-1.3c-.9.6-.4,2.6.7,1.9S468.1,89.2,467,89.9Zm-34.4-6.4a2,2,0,0,0-2.2-.1C430.2,84.4,432.6,84.4,432.6,83.5Zm56.3-23.9c.2,2.2,1.9-1.1,0,0Zm1.3,27.8V88c-1.3-.3-2.6-.5-3.8-.9-6.2-.7-12.4-.7-18.4-2.3-2.2.1-4.4.4-6.6.4s-3.5-.9-5.2-1.3-3.1-1-4.5-.1a15.7,15.7,0,0,0-4.6-1.6c-1.6-.2-3.4-1.1-4.8,0-5.4-.4-10.9-1.3-16.3-1.4-2.4-1.1-5.1-.9-7.6-.5,0,.4.1,1.1.1,1.4l-2.3,1.1-.7-1.7a33.2,33.2,0,0,1-5.5-.9c1.7,1.6,5.5.3,6.1,3.2-4.8-.6-9.8-.9-14.3-2.6h3.6a3.1,3.1,0,0,0-3.6-1l-.9-1h-2.4a23.7,23.7,0,0,1,3.4,2.9l-2.2-1.1c-2.9.6-5.7-.6-8.6-.8-5.6-.3-11.1-2.2-16.8-1.9,2.5,1.2,5.4,1,8,1.9a16.3,16.3,0,0,0,6.6.6c3.8.8,7.5,1.8,11.3,1.8a1.4,1.4,0,0,1,.2.6h.1a1.7,1.7,0,0,1,.2.5c2-.7,4.2-.1,6.2.2s6.3.8,9.4,1.6,6.8.9,10.2,1.3c0-.3-.2-.9-.2-1.3a15.9,15.9,0,0,1-3.9-.6c-1.7-.6-3.4-.2-5.1-.2l2.5-3.5a26.8,26.8,0,0,1,.5,3c.6-.7,1.6-1.4.8-2.5a56.6,56.6,0,0,0,8.2,1.6v.9l-1.9-.3a1.1,1.1,0,0,0,.1.5h0v.5l1.4-.8,3,1.4a24,24,0,0,0,6.5-.4l.8.7h-1.7l2.6,1.7a22.4,22.4,0,0,1-5.2-.5c-2.8-.6-5.7-.4-8.2-1.8l.3,1.9A84.2,84.2,0,0,1,438,89c3.3.8,6.8.9,10.1,1.8l-3,.9,2.4.9,1.5-.9,1.4,1.6c-5.9.8-11.6-1.4-17.4-1.9l.6.9c4-.7,7.4,2.5,11.4,1.6-.1.5-.5,1.7-.6,2.3l1.7-.2c-.9.8-2.1.7-3.2.8a14.4,14.4,0,0,0-6.8-.8,21.7,21.7,0,0,1,.7-2.4l-1.6,1h.5v2c2.8,1,5.6,2.3,8.6,2.6s6.1,2.6,9.5,2.5l-.9.7c-5.5-.1-11-1-16.5-1.4a20.8,20.8,0,0,0-7-1c-1,1.7-2.8,1.5-4.2.4h-3.9c1.4,1.3,3.8.5,4.8,2.3-3.3-.6-6.6-.7-9.8-1-6-1.4-12.1-1.9-18.2-2.7a23.7,23.7,0,0,0-8.4-1c-3.3.2-6.6-.8-9.9-1.1s-9.6-1.2-14.4-1.9L349,93.3c-3-1.3-6.2-.5-9.3-.8s-4.5.2-6.2-1.2h-3.9a5.4,5.4,0,0,0-3.3.4c-1.6-.1-3-.9-4.5-1.3s-3.1,1-4-.7c-2.8.1-5.8-.6-8.6,0l-1.4-.4c-3.7.6-7.5-.3-11.2-.8a12.4,12.4,0,0,1,2-1,19.7,19.7,0,0,1-5.4.4c-6.2.3-12.4-1-18.6-1.1-4.3.1-8.4-1.2-12.7-.9-6.6-.6-13.3-.7-19.9-1.1-9-1.4-18.2-.6-27.3-1.6-3.8-.3-7.5.1-11.3-.3s-7.6,0-11.4-.4c-8.8-.8-17.7-.1-26.5-.6a130.2,130.2,0,0,1-15.3-.1c-7.8.4-15.6.2-23.4.5-10.8-.6-21.7.5-32.6.8s-19.5.8-29.2,1-17,1.2-25.4,2.2c-6,1-12.1,1.7-17.8,3.6-1.9.6-3.5-.5-5-1.4s-2.9-3.4-2.9-5.6c-.1-4-.1-8,1.1-11.8l-1.2-3.2L16.5,69a17,17,0,0,1,.1-3.9,5.6,5.6,0,0,0,3.7,1.1c7.3-.5,14.4-2.1,21.7-2.7,0-.4-.1-1.1-.1-1.4l.6,1H44l.3-.2h.1l.2-.2c3.7.6,7.3-.6,11-.6,6.6-.2,13.1-1.2,19.7-1.3l.4-.6c-.3-.5-.8-.6-1.5-.2l.5-.8c-6.8-.1-13.5.3-20.3.2s-12.9-.1-19.4.5-10.2.8-15.3.6c-3.6,0-7.1,1.1-10.6,1.8s-4.4-1.2-5.9-2.9S1.4,55,.8,52.6A12.6,12.6,0,0,1,1,46.2c-.3-1.3-.7-2.5-1-3.7s1.6-.7,2.2-1.4S6.4,39.8,8,38l-2.8-.2C3,34,1.2,29.8,2,25.4a9.3,9.3,0,0,1,.8-8.3c.3-.7.5-1.4.8-2s.2,1.8.3,2.5l5.7-1.2V17l-3.9.4c2.3,1.4,4.9.5,7.3.5l17.4-1.4c3.8.5,7.5-1.2,11.3-.6s5.2-.3,7.9-.4c10.6.2,21.2-1.1,31.9-.7,21.8-.6,43.6.9,65.4,1.3,4.9,0,9.7.8,14.6.6,7.6-.2,15.1,1.4,22.7,1.4,2.1-.1,4.3.9,6.3.1,4,1.1,8.2.8,12.2,1.2,7.5.8,15.1,1,22.6,1.6l22,1.9c4.7-.1,9.3,1.1,14,1.3,27.4,2.6,54.7,5.7,81.9,9.5l8.6.8c9.3,1.7,18.7,2.6,28,4.1,6.9.4,13.6,2.2,20.4,2.9S411.5,42.7,417,44c8.5,1,17,2.9,25.6,4.1s17.9,3.4,27,4.8c3.2.6,6.4,1.1,9.6,1.8s5.1.9,7.7,1.4,4.8,1.3,7.3,1.6l.8,1.2c-5.6-1.1-11.3-1.9-16.9-2.7v.6c3.5.6,6.7,1.9,10.2,2.6-3,.9-6.1-.5-9.1-.3a22.6,22.6,0,0,0,2.6,1.6,11.2,11.2,0,0,0,3.7,2.1l-2.9.6c-2.9-.1-5.7-1.3-8.5-.9,1.9.4,3.9.6,5.9,1.2-1.2.5-2.4,1.1-3.7.8-3.3-.6-6.6.4-10,.3V66a32.2,32.2,0,0,1,6.3,1.5c-3.9.4-7.9-.9-11.8-.3a31.8,31.8,0,0,0,6.9,1.8,2.9,2.9,0,0,0-.2.9l-9.8-1.4v1.1a6.2,6.2,0,0,1,3.6,1.4,44.8,44.8,0,0,1-6.4-.6l-.7.9c-1.1.3-1.7-1-2.5-1.5a33.9,33.9,0,0,0-4.3-1.1l1.7,1.1-1.4.9a7.2,7.2,0,0,0,4.1-.1l1.4,1.3a45.7,45.7,0,0,1,5.2.5l2.6-.9c-.4.9-.8,1.7-1.1,2.6a57.9,57.9,0,0,0,7.2-.4l.9,1,1.2-1.5c.1.6.2,1.8.3,2.4s.8-1.6,1.3-2.4c-2.5-1.4-5.2,0-7.8,0a22.3,22.3,0,0,1-.4-2.3c2.9.7,6.1,1.4,8.9,0l-1.6-.7c2.4-.7,4.8.5,7.2.6s6.5,1.6,9.8,2,8.8,1.6,13.2,2.5v1.2c-5-.8-10-1.9-15-2.9-3-.9-6.2-.6-9.1-1.8a11.7,11.7,0,0,0-4.6-.8h.1c0,.3.2.9.2,1.3l2.2.2c-.4,1-.7,2-1,3l2.3-2.3c4-.7,7.6,1.3,11.5,1.8a4.4,4.4,0,0,1-4.2,1.9V75.1l-2.9.5c-.1,1.1,1,1.5,1.6,2l4.4.7V76.7h3.1a5.5,5.5,0,0,1-2.6,1.9l4.1.4a14,14,0,0,0,4.2,1.5l1,.2c.5,1,1.4,2.6,2.7,2.8a44.4,44.4,0,0,1-3.7,2.6,102.9,102.9,0,0,1-13.6-3l-1,.4-3.2-.5c1.6,1.6,4.6.2,5.7,2.6A77.3,77.3,0,0,1,490.2,87.4Zm-2.1-5.8a43.2,43.2,0,0,0,7.1,1.7C493.5,81.3,490.5,81.8,488.1,81.6Zm-10.8-2.2a8.7,8.7,0,0,0,7,1.3A27.1,27.1,0,0,0,477.3,79.4Zm.6-19.9c-.1-1-.6-1.1-1.4-.5S477.1,60,477.9,59.5Zm-5.1-4.2h0a10.1,10.1,0,0,0,5.1,1.5c-.9-1.1-2.3-1-3.6-1.1l-.6-.2h-.3ZM458.6,66.9c.1.9.6,1,1.4.5S459.4,66.3,458.6,66.9Zm-8.7,1.7a12.2,12.2,0,0,0,5.7-.4C453.7,67.8,451.5,67.2,449.9,68.6ZM75.1,35.7c-3.2-.5-6.4.1-9.6-.1-9.1.3-18.1,0-27.2.7a45.3,45.3,0,0,0-5.3.5c3.1.9,6.4.2,9.6-.1s7.5.9,11.1,0C60.9,36.3,68.1,36.7,75.1,35.7ZM78,59.8H76.4C76.4,60.6,78.2,60.9,78,59.8Zm15.2-.5c-4.8-.1-9.7.1-14.6.3l-.2,1c3.7-.6,7.4-.3,11.1-.8L89,61.5l1.1-1.8A10.6,10.6,0,0,0,93.2,59.3Zm224,11.9c-.7-1.8-3.9-3.2-4.5-.6Zm22,1.8c-.4-1-2.3-1.3-2.6-.2S338.9,74.1,339.2,73Zm7.6,1.4c-.7-1.4-2.8-2.2-4-.9Zm.4-.8c-.9.7.2,2.3,1.1,1.6S348.2,72.8,347.2,73.6Zm90.2,20.5c1,1.5,3.1,1.1,4.7,1.6l-.2-1.1Zm6.5-2.2q.5-1.4-.9-1.2T443.9,91.9Zm-19.1,2.8a35.6,35.6,0,0,0,8.6,1.1l-2.1-1.7,1.1-1.2-5.6-.5h0a9.5,9.5,0,0,1,.5,1.8h-1.4ZM371.6,75.8c.3-1.1-.1-1.4-1.2-1.1S370.5,76.1,371.6,75.8Zm-15.8-1.4c-1.7,0-3.5-.4-5,.6C352.5,75.5,354.4,76,355.8,74.4Zm13.1,2a39.9,39.9,0,0,0-7.7-.5h-2.4a2.8,2.8,0,0,0-3.2-.6l2.7.5c-.1.3-.2.9-.3,1.1,1.9-1.4,4.6-.5,6.6.2l3.6-.2Zm3.2.8c0-.9-1.6-.9-2.1-.3S371.6,77.8,372.1,77.2Zm25.1,1.4c0,2.2,2-1,0,0Zm8.7.9.6,1.2,3.5-.3A18.7,18.7,0,0,0,405.9,79.5Zm23-8.7c-.3,1,.1,1.3,1.3.9S430,70.3,428.9,70.8Zm-.3-3.7c-.4.8.9,1.6,1.6,1S429.2,66.6,428.6,67.1Zm13,.6a1.7,1.7,0,0,0-2.4-.6C438.4,68.5,441.4,69,441.6,67.7Zm.4,1.5,1.3.5C444,68.8,441.9,68,442,69.2Zm12.1,6c.1-1.5-2-.5-2.8-.8s-1.5-.3-2.2,0A8.6,8.6,0,0,0,454.1,75.2Zm4.3.2c.1,2.2,2-.9,0,0Zm14.7,3.3v-.5c-4.1-.7-8.1-1.6-12.2-2.1v.5C465,77.3,469,78.3,473.1,78.7Zm-4.2,3.2-2.4-1.5-3.1.6A52.5,52.5,0,0,0,468.9,81.9Zm4.8.1a6.1,6.1,0,0,0-3.3.2,1.6,1.6,0,0,0,1.8.5C472.6,82.9,475,82.6,473.7,82Zm2.8,9.9c.1,2.2,1.9-1,0,0Zm-6.8-1.3c.2,2.2,2-1,0,0Z" fill="#ffeb4f"/><path d="M66.7,32.3h-4v7.1h-5V15.1h9c5.7,0,8.6,2.8,8.6,8.4,0,2.9-.7,5-2.2,6.5S69.5,32.3,66.7,32.3Zm-4-4.2h3.9c2.5,0,3.7-1.5,3.7-4.6a4.5,4.5,0,0,0-.9-3.2,3.4,3.4,0,0,0-2.8-1H62.7ZM92.6,39.4H78.8V15.1h4.9V35h8.9Zm1,0,5.5-24.3h9.3l5.5,24.3H109L108,35H99.5l-1,4.4Zm9.3-20.2-2.5,11.5h6.7l-2.5-11.5Zm12.1.3V15.1h17.8v4.4h-6.4V39.4h-4.9V19.5Zm20.9,19.9V15.1h15.6v4.3H140.9v7.1h8.6v4.3h-8.6v8.6Zm35.8-2.6q-2.2,3-7.8,3t-7.8-3c-1.5-2-2.3-5.2-2.3-9.5s.8-7.4,2.3-9.5,4.1-3.1,7.8-3.1,6.3,1,7.8,3.1,2.3,5.3,2.3,9.5S173.2,34.8,171.7,36.8ZM160,33.7q1,1.8,3.9,1.8c2,0,3.3-.6,4-1.8s1-3.4,1-6.3-.3-5.1-1-6.4a4.1,4.1,0,0,0-4-2c-1.9,0-3.2.6-3.9,2s-1.1,3.4-1.1,6.4A13.9,13.9,0,0,0,160,33.7Zm23.1-2.5v8.2h-4.9V15.1h9.4c5.8,0,8.6,2.7,8.6,8a7.6,7.6,0,0,1-3.6,7l3.5,9.3h-5.4l-2.8-8.2Zm7.2-5.2a4.6,4.6,0,0,0,.9-2.9,4.3,4.3,0,0,0-.9-2.8,3.7,3.7,0,0,0-2.7-1h-4.5V27h4.6A3,3,0,0,0,190.3,26Zm10.1,13.4V15.1h8.4L213,32.8l4.3-17.7h8.4V39.4h-4.9V20.6h-.5l-4.8,17.7h-4.9l-4.8-17.7h-.5V39.4Zm28.6,0,5.4-24.3h9.4l5.5,24.3h-5l-.9-4.4h-8.5l-1,4.4Zm9.3-20.2-2.5,11.5h6.7L240,19.2ZM32.5,77.4H24.3V53.1h8.2a18.7,18.7,0,0,1,5.2.7A5.9,5.9,0,0,1,40.8,56a8.6,8.6,0,0,1,1.6,3.5,27,27,0,0,1,.4,5.4,27,27,0,0,1-.4,5.4,9.6,9.6,0,0,1-1.5,3.9,7,7,0,0,1-3.1,2.5A16.2,16.2,0,0,1,32.5,77.4Zm5.2-9.6V64.6a29.2,29.2,0,0,0-.1-3.2,5.2,5.2,0,0,0-.7-2.2,2.5,2.5,0,0,0-1.6-1.4,7.2,7.2,0,0,0-2.8-.4H29.2V73.1h3.3c1.8,0,3.1-.4,3.9-1.3A7.2,7.2,0,0,0,37.7,67.8Zm26.2,7c-1.5,2.1-4.1,3.1-7.8,3.1s-6.3-1-7.8-3.1S46,69.7,46,65.4s.8-7.5,2.3-9.6,4.1-3.1,7.8-3.1,6.3,1,7.8,3.1,2.3,5.3,2.3,9.6S65.4,72.8,63.9,74.8ZM52.1,71.7a4.4,4.4,0,0,0,4,1.9A4.2,4.2,0,0,0,60,71.7a13.9,13.9,0,0,0,1.1-6.3A14.4,14.4,0,0,0,60,59a4.1,4.1,0,0,0-3.9-2,4.1,4.1,0,0,0-3.9,2c-.8,1.3-1.1,3.5-1.1,6.4S51.4,70.4,52.1,71.7Zm18.3,5.7V53.1h8.3l5.9,20h.3v-20h5V77.4H81.7l-6-20h-.4v20Zm22.7,0,5.5-24.3h9.3l5.5,24.3h-4.9l-1-4.4H99l-1,4.4Zm9.3-20.2L99.9,68.7h6.7l-2.5-11.5Zm12.1.3V53.1h17.8v4.4h-6.4V77.4H121V57.5Zm37.8,17.3c-1.6,2.1-4.2,3.1-7.9,3.1s-6.2-1-7.8-3.1-2.2-5.1-2.2-9.4.7-7.5,2.2-9.6,4.2-3.1,7.8-3.1,6.3,1,7.9,3.1,2.2,5.3,2.2,9.6S153.8,72.8,152.3,74.8Zm-11.8-3.1a4.2,4.2,0,0,0,3.9,1.9c2,0,3.3-.7,4-1.9a13.9,13.9,0,0,0,1.1-6.3,14.4,14.4,0,0,0-1.1-6.4c-.7-1.3-2-2-4-2a4.1,4.1,0,0,0-3.9,2,14.4,14.4,0,0,0-1.1,6.4A13.9,13.9,0,0,0,140.5,71.7Zm23.2-2.4v8.1h-5V53.1h9.5c5.7,0,8.5,2.7,8.5,8,0,3.2-1.1,5.5-3.5,7l3.4,9.3h-5.4l-2.8-8.1Zm7.2-5.3a4.9,4.9,0,0,0,.8-2.8,4.1,4.1,0,0,0-.9-2.8,3.3,3.3,0,0,0-2.6-1h-4.5v7.7h4.5A3.4,3.4,0,0,0,170.9,64Zm10,13.4V53.1h4.9V77.4Zm24,0H191.1V53.1H196v20h8.9Zm19.9-2.6c-1.5,2.1-4.1,3.1-7.8,3.1s-6.3-1-7.8-3.1-2.3-5.1-2.3-9.4.8-7.5,2.3-9.6,4.1-3.1,7.8-3.1,6.3,1,7.8,3.1,2.3,5.3,2.3,9.6S226.3,72.8,224.8,74.8ZM213,71.7c.7,1.2,2,1.9,4,1.9a4.2,4.2,0,0,0,3.9-1.9,13.9,13.9,0,0,0,1.1-6.3,14.4,14.4,0,0,0-1.1-6.4,4.1,4.1,0,0,0-3.9-2,4.3,4.3,0,0,0-4,2c-.7,1.3-1,3.5-1,6.4S212.3,70.4,213,71.7Zm23.2-2.4v8.1h-4.9V53.1h9.4c5.7,0,8.6,2.7,8.6,8a7.6,7.6,0,0,1-3.6,7l3.5,9.3h-5.4L241,69.3Zm7.2-5.3a4.2,4.2,0,0,0,.8-2.8,4.1,4.1,0,0,0-.9-2.8,3.3,3.3,0,0,0-2.6-1h-4.5v7.7h4.6A3.3,3.3,0,0,0,243.4,64Z"/><path d="M449.8,79.5a1.5,1.5,0,0,1,1.5,1.5V91.1a1.4,1.4,0,0,1-1.5,1.4H419.5a1.4,1.4,0,0,1-1.4-1.4V81a1.5,1.5,0,0,1,1.4-1.5h30.3m-72.2,0H347.3a1.5,1.5,0,0,0-1.4,1.5V91.1a1.4,1.4,0,0,0,1.4,1.4h30.3a1.5,1.5,0,0,0,1.5-1.4V81a1.5,1.5,0,0,0-1.5-1.5M293.9,63.6a1.5,1.5,0,0,0-1.5,1.5V75.2a1.5,1.5,0,0,0,1.5,1.4h30.3a1.4,1.4,0,0,0,1.4-1.4V65.1a1.5,1.5,0,0,0-1.4-1.5H293.9M382,49.2V59.3a1.4,1.4,0,0,0,1.4,1.4h30.3a1.5,1.5,0,0,0,1.5-1.4V49.2a1.5,1.5,0,0,0-1.5-1.5H383.4a1.5,1.5,0,0,0-1.4,1.5M275.1,44.8h13a1.4,1.4,0,0,0,1.4-1.4V33.3a1.5,1.5,0,0,0-1.4-1.5h-13a1.5,1.5,0,0,0-1.5,1.5V43.4a1.5,1.5,0,0,0,1.5,1.4m34.6-27.5V27.5a1.5,1.5,0,0,0,1.5,1.4h30.3a1.5,1.5,0,0,0,1.5-1.4V17.3a1.5,1.5,0,0,0-1.5-1.4H311.2a1.5,1.5,0,0,0-1.5,1.4" fill="#00c4cc"/><path d="M413.7,79.5a1.5,1.5,0,0,1,1.5,1.5V91.1a1.5,1.5,0,0,1-1.5,1.4H383.4a1.4,1.4,0,0,1-1.4-1.4V81a1.5,1.5,0,0,1,1.4-1.5h30.3m-72.2,0H311.2a1.5,1.5,0,0,0-1.5,1.5V91.1a1.5,1.5,0,0,0,1.5,1.4h30.3a1.5,1.5,0,0,0,1.5-1.4V81a1.5,1.5,0,0,0-1.5-1.5m-36.1,0H275.1a1.5,1.5,0,0,0-1.5,1.5V91.1a1.5,1.5,0,0,0,1.5,1.4h30.3a1.5,1.5,0,0,0,1.5-1.4V81a1.5,1.5,0,0,0-1.5-1.5M449.8,63.6H438.3a1.5,1.5,0,0,0-1.5,1.5V75.2a1.5,1.5,0,0,0,1.5,1.4h11.5a1.4,1.4,0,0,0,1.5-1.4V65.1a1.5,1.5,0,0,0-1.5-1.5m-49.1,1.5V75.2a1.5,1.5,0,0,0,1.5,1.4h30.3a1.5,1.5,0,0,0,1.5-1.4V65.1a1.5,1.5,0,0,0-1.5-1.5H402.2a1.5,1.5,0,0,0-1.5,1.5M366.1,76.6h30.3a1.5,1.5,0,0,0,1.5-1.4V65.1a1.5,1.5,0,0,0-1.5-1.5H366.1a1.5,1.5,0,0,0-1.5,1.5V75.2a1.5,1.5,0,0,0,1.5,1.4m-36.1,0h30.3a1.4,1.4,0,0,0,1.4-1.4V65.1a1.5,1.5,0,0,0-1.4-1.5H330a1.5,1.5,0,0,0-1.5,1.5V75.2a1.5,1.5,0,0,0,1.5,1.4m-54.9,0h13a1.4,1.4,0,0,0,1.4-1.4V65.1a1.5,1.5,0,0,0-1.4-1.5h-13a1.5,1.5,0,0,0-1.5,1.5V75.2a1.5,1.5,0,0,0,1.5,1.4M449.8,47.7H419.5a1.5,1.5,0,0,0-1.4,1.5V59.3a1.4,1.4,0,0,0,1.4,1.4h30.3a1.4,1.4,0,0,0,1.5-1.4V49.2a1.5,1.5,0,0,0-1.5-1.5M379.1,59.3V49.2a1.5,1.5,0,0,0-1.5-1.5H347.3a1.5,1.5,0,0,0-1.4,1.5V59.3a1.4,1.4,0,0,0,1.4,1.4h30.3a1.5,1.5,0,0,0,1.5-1.4m-36.1,0V49.2a1.5,1.5,0,0,0-1.5-1.5H311.2a1.5,1.5,0,0,0-1.5,1.5V59.3a1.5,1.5,0,0,0,1.5,1.4h30.3a1.5,1.5,0,0,0,1.5-1.4m-67.9,1.4h30.3a1.5,1.5,0,0,0,1.5-1.4V49.2a1.5,1.5,0,0,0-1.5-1.5H275.1a1.5,1.5,0,0,0-1.5,1.5V59.3a1.5,1.5,0,0,0,1.5,1.4m89.5-27.4V43.4a1.5,1.5,0,0,0,1.5,1.4h30.3a1.5,1.5,0,0,0,1.5-1.4V33.3a1.5,1.5,0,0,0-1.5-1.5H366.1a1.5,1.5,0,0,0-1.5,1.5m-4.3,11.5a1.4,1.4,0,0,0,1.4-1.4V33.3a1.5,1.5,0,0,0-1.4-1.5H330a1.5,1.5,0,0,0-1.5,1.5V43.4a1.5,1.5,0,0,0,1.5,1.4h30.3m-34.7-1.4V33.3a1.5,1.5,0,0,0-1.4-1.5H293.9a1.5,1.5,0,0,0-1.5,1.5V43.4a1.5,1.5,0,0,0,1.5,1.4h30.3a1.4,1.4,0,0,0,1.4-1.4m21.7-14.5h30.3a1.5,1.5,0,0,0,1.5-1.4V17.3a1.5,1.5,0,0,0-1.5-1.4H347.3a1.4,1.4,0,0,0-1.4,1.4V27.5a1.4,1.4,0,0,0,1.4,1.4m-72.2,0h30.3a1.5,1.5,0,0,0,1.5-1.4V17.3a1.5,1.5,0,0,0-1.5-1.4H275.1a1.5,1.5,0,0,0-1.5,1.4V27.5a1.5,1.5,0,0,0,1.5,1.4M293.9,13h30.3a1.4,1.4,0,0,0,1.4-1.4V1.4A1.4,1.4,0,0,0,324.2,0H293.9a1.5,1.5,0,0,0-1.5,1.4V11.6a1.5,1.5,0,0,0,1.5,1.4m-18.8,0h13a1.4,1.4,0,0,0,1.4-1.4V1.4A1.4,1.4,0,0,0,288.1,0h-13a1.5,1.5,0,0,0-1.5,1.4V11.6a1.5,1.5,0,0,0,1.5,1.4"/></svg>