<svg xmlns="http://www.w3.org/2000/svg" viewBox="0 0 400 210"><path fill="none" stroke-miterlimit="10" stroke-width="1" stroke="currentColor" d="M393.1,178.45a3.2,3.2,0,0,1,3.2,3.2h0v22.4a3.2,3.2,0,0,1-3.2,3.2h-67a3.2,3.2,0,0,1-3.2-3.2h0v-22.4a3.2,3.2,0,0,1,3.2-3.2h67m-159.6,0h-67a3.2,3.2,0,0,0-3.2,3.2v22.4a3.2,3.2,0,0,0,3.2,3.2h67a3.2,3.2,0,0,0,3.2-3.2h0v-22.4a3.2,3.2,0,0,0-3.2-3.2h0M48.4,143.35a3.2,3.2,0,0,0-3.2,3.2v22.3a3.2,3.2,0,0,0,3.2,3.2h67a3.2,3.2,0,0,0,3.2-3.2v-22.3a3.2,3.2,0,0,0-3.2-3.2h-67m194.7-32v22.4a3.2,3.2,0,0,0,3.2,3.2h67a3.2,3.2,0,0,0,3.2-3.2h0v-22.4a3.2,3.2,0,0,0-3.2-3.2h-67a3.2,3.2,0,0,0-3.2,3.2h0M6.9,101.75H35.6a3.2,3.2,0,0,0,3.2-3.2V76.25a3.2,3.2,0,0,0-3.2-3.2H6.9a3.2,3.2,0,0,0-3.2,3.2v22.3a3.2,3.2,0,0,0,3.2,3.2m76.6-60.7v22.4a3.2,3.2,0,0,0,3.2,3.2h67a3.2,3.2,0,0,0,3.2-3.2V41.05a3.2,3.2,0,0,0-3.2-3.2h-67a3.2,3.2,0,0,0-3.2,3.2m229.8,137.4a3.2,3.2,0,0,1,3.2,3.2h0v22.4a3.2,3.2,0,0,1-3.2,3.2h-67a3.2,3.2,0,0,1-3.2-3.2h0v-22.4a3.2,3.2,0,0,1,3.2-3.2h67m-159.6,0h-67a3.2,3.2,0,0,0-3.2,3.2v22.4a3.2,3.2,0,0,0,3.2,3.2h67a3.2,3.2,0,0,0,3.2-3.2v-22.4a3.2,3.2,0,0,0-3.2-3.2m-79.8,0H6.9a3.2,3.2,0,0,0-3.2,3.2v22.4a3.2,3.2,0,0,0,3.2,3.2h67a3.2,3.2,0,0,0,3.2-3.2v-22.4a3.2,3.2,0,0,0-3.2-3.2m319.2-35.1H367.6a3.2,3.2,0,0,0-3.2,3.2h0v22.3a3.2,3.2,0,0,0,3.2,3.2h25.5a3.2,3.2,0,0,0,3.2-3.2h0v-22.3a3.2,3.2,0,0,0-3.2-3.2h0m-108.5,3.2v22.3a3.2,3.2,0,0,0,3.2,3.2h67a3.2,3.2,0,0,0,3.2-3.2h0v-22.3a3.2,3.2,0,0,0-3.2-3.2h-67a3.2,3.2,0,0,0-3.2,3.2h0M208,172.05h67a3.2,3.2,0,0,0,3.2-3.2h0v-22.3a3.2,3.2,0,0,0-3.2-3.2H208a3.2,3.2,0,0,0-3.2,3.2v22.3a3.2,3.2,0,0,0,3.2,3.2m-79.8,0h67a3.2,3.2,0,0,0,3.2-3.2v-22.3a3.2,3.2,0,0,0-3.2-3.2h-67a3.2,3.2,0,0,0-3.2,3.2v22.3a3.2,3.2,0,0,0,3.2,3.2m-121.3,0H35.6a3.2,3.2,0,0,0,3.2-3.2v-22.3a3.2,3.2,0,0,0-3.2-3.2H6.9a3.2,3.2,0,0,0-3.2,3.2v22.3a3.2,3.2,0,0,0,3.2,3.2m386.2-63.9h-67a3.2,3.2,0,0,0-3.2,3.2h0v22.4a3.2,3.2,0,0,0,3.2,3.2h67a3.2,3.2,0,0,0,3.2-3.2h0v-22.4a3.2,3.2,0,0,0-3.2-3.2h0m-156.4,25.6v-22.4a3.2,3.2,0,0,0-3.2-3.2h-67a3.2,3.2,0,0,0-3.2,3.2v22.4a3.2,3.2,0,0,0,3.2,3.2h67a3.2,3.2,0,0,0,3.2-3.2h0m-79.8,0v-22.4a3.2,3.2,0,0,0-3.2-3.2h-67a3.2,3.2,0,0,0-3.2,3.2v22.4a3.2,3.2,0,0,0,3.2,3.2h67a3.2,3.2,0,0,0,3.2-3.2M6.9,137h67a3.2,3.2,0,0,0,3.2-3.2v-22.4a3.2,3.2,0,0,0-3.2-3.2H6.9a3.2,3.2,0,0,0-3.2,3.2v22.4A3.2,3.2,0,0,0,6.9,137m197.9-60.7v22.3a3.2,3.2,0,0,0,3.2,3.2h67a3.2,3.2,0,0,0,3.2-3.2h0V76.25a3.2,3.2,0,0,0-3.2-3.2H208a3.2,3.2,0,0,0-3.2,3.2m-9.6,25.5a3.2,3.2,0,0,0,3.2-3.2V76.25a3.2,3.2,0,0,0-3.2-3.2h-67a3.2,3.2,0,0,0-3.2,3.2v22.3a3.2,3.2,0,0,0,3.2,3.2h67m-76.6-3.2V76.25a3.2,3.2,0,0,0-3.2-3.2h-67a3.2,3.2,0,0,0-3.2,3.2v22.3a3.2,3.2,0,0,0,3.2,3.2h67a3.2,3.2,0,0,0,3.2-3.2m47.9-31.9h67a3.2,3.2,0,0,0,3.2-3.2h0V41.05a3.2,3.2,0,0,0-3.2-3.2h-67a3.2,3.2,0,0,0-3.2,3.2v22.4a3.2,3.2,0,0,0,3.2,3.2m-159.6,0h67a3.2,3.2,0,0,0,3.2-3.2V41.05a3.2,3.2,0,0,0-3.2-3.2H6.9a3.2,3.2,0,0,0-3.2,3.2h0v22.4a3.2,3.2,0,0,0,3.2,3.2h0m41.5-35.1h67a3.2,3.2,0,0,0,3.2-3.2V6a3.2,3.2,0,0,0-3.2-3.2h-67A3.2,3.2,0,0,0,45.2,6v22.4a3.2,3.2,0,0,0,3.2,3.2m-41.5,0H35.6a3.2,3.2,0,0,0,3.2-3.2V6a3.2,3.2,0,0,0-3.2-3.2H6.9A3.2,3.2,0,0,0,3.7,6h0v22.4a3.2,3.2,0,0,0,3.2,3.2h0"/></svg>