<svg xmlns="http://www.w3.org/2000/svg" viewBox="0 0 500 226.5"><path d="M453.5,196.9a15.1,15.1,0,0,1,3.6.6l-.8-2.8,2.2.5C457.5,199.8,455.2,198.5,453.5,196.9Zm-4.4-2.3,2,1.8a6.2,6.2,0,0,1,1.9-3.7,14.9,14.9,0,0,0-6.7-2.5,26,26,0,0,0,1,2.5h-2.5c0,1,0,2.9.1,3.9s2.5-.5,2.7-3.9l3.7.3v1.7Zm9.7,1.6c.5,1.8,1,1.8,1.4,0S459.2,194.4,458.8,196.2ZM15.4,35.6c-.8-1.2-1.3-.9-1.4,1S15.3,37.5,15.4,35.6ZM460.2,210.3c.1,4.8,2-2.2,0,0Zm-2.3-5.5-5-1.8,2.4,3.5c-1.5,2.3-2.8-.2-4-1.9l-.9,3.5a17.9,17.9,0,0,0,6.5-.5l-.5,3.4,2.3-2.8-1.9.3C457.1,207.6,457.6,205.8,457.9,204.8Zm33.8-31.1,3.2.5.5-.7v-.2l.5-.8.8,3,2.8-2.9a9.3,9.3,0,0,0-3.7-2.1c-1-2.3-2.5-2.3-3.8-2.5h0l.3,3.9-.8-.4Zm-29.9,27.9,2.5-2.4.7,2.1,1.2-2.2A29.2,29.2,0,0,0,463,197Zm5.2-2.8c-.9,1.1-.4,5.7.7,4S468.1,197.1,467,198.8Zm-34.4-14.2c-.7-1.1-1.5-1.2-2.2-.2S432.6,186.6,432.6,184.6Zm56.3-52.8c.2,4.8,1.9-2.5,0,0Zm1.3,61.4v1.3l-3.8-1.9c-6.2-1.6-12.4-1.7-18.4-5.3a50.5,50.5,0,0,1-6.6,1.1c-1.5-2.4-3.5-2-5.2-3s-3.1-2.2-4.5-.1c-1.5-1.7-3-3.3-4.6-3.7s-3.4-2.4-4.8.1c-5.4-1-10.9-3-16.3-3.2-2.4-2.5-5.1-1.9-7.6-1,0,.8.1,2.3.1,3.1l-2.3,2.3c-.2-.9-.5-2.8-.7-3.7-1.9-.1-3.7-1.1-5.5-2,1.7,3.7,5.5.6,6.1,7.1-4.8-1.4-9.8-1.9-14.3-5.7l3.6-.4c-.9-2.5-2.3-3-3.6-2.1s-.7-1.6-.9-2.2l-2.4-.2a48.1,48.1,0,0,1,3.4,6.4,26.2,26.2,0,0,1-2.2-2.5c-2.9,1.4-5.7-1.3-8.6-1.6-5.6-.8-11.1-4.9-16.8-4.3,2.5,2.7,5.4,2.2,8,4.2a8,8,0,0,0,6.6,1.3c3.8,1.7,7.5,3.9,11.3,4.1a4.3,4.3,0,0,1,.2,1.2v.2a6,6,0,0,1,.2,1.2c2-1.7,4.2-.2,6.2.4s6.3,1.7,9.4,3.6,6.8,1.9,10.2,2.9c0-.7-.2-2.2-.2-2.9a8.2,8.2,0,0,1-3.9-1.5c-1.7-1.1-3.4-.3-5.1-.4.9-2.5,1.7-5.2,2.5-7.7.2,1.7.4,5,.5,6.6.6-1.6,1.6-3.1.8-5.5a34.7,34.7,0,0,0,8.2,3.6v1.9l-1.9-.6a4.5,4.5,0,0,0,.1,1.1v1.3L429,185l3,3c2.1.6,4.3,0,6.5-.8l.8,1.6-1.7.2c.9,1.2,1.7,2.5,2.6,3.8a10.7,10.7,0,0,1-5.2-1.2c-2.8-1.3-5.7-.9-8.2-3.9l.3,4.2a46.7,46.7,0,0,1,10.9,4.7c3.3,1.9,6.8,2.2,10.1,4.1l-3,2,2.4,2,1.5-2.1c.4,1.2.9,2.3,1.4,3.5-5.9,1.9-11.6-3-17.4-4.2a15.2,15.2,0,0,0,.6,2c4-1.5,7.4,5.5,11.4,3.5-.1,1.3-.5,3.9-.6,5.2l1.7-.6c-.9,1.9-2.1,1.8-3.2,2a7.2,7.2,0,0,0-6.8-1.8c.2-1.8.4-3.7.7-5.4a18.8,18.8,0,0,0-1.6,2.3l.5-.2v4.3c2.8,2.2,5.6,5.1,8.6,5.7s6.1,5.9,9.5,5.7l-.9,1.4c-5.5-.2-11-2.2-16.5-3a11.3,11.3,0,0,0-7-2.3c-1,3.8-2.8,3.4-4.2.9a25.4,25.4,0,0,0-3.9-.1c1.4,2.8,3.8,1.1,4.8,5-3.3-1.2-6.6-1.5-9.8-2.3-6-3-12.1-4.2-18.2-5.9a12.4,12.4,0,0,0-8.4-2.1c-3.3.4-6.6-1.9-9.9-2.4s-9.6-2.7-14.4-4.2-10.9-2-16.4-3.4c-3-2.9-6.2-1.1-9.3-1.8s-4.5.5-6.2-2.7l-3.9-.3c-1.1-.5-2.2,0-3.3,1s-3-1.9-4.5-2.8c-1.5.8-3.1,2.1-4-1.5-2.8.1-5.8-1.4-8.6-.1l-1.4-.9c-3.7,1.3-7.5-.6-11.2-1.8a19.9,19.9,0,0,1,2-2.1,9.3,9.3,0,0,1-5.4.7c-6.2.9-12.4-2.1-18.6-2.4-4.3.3-8.4-2.6-12.7-1.9-6.6-1.2-13.3-1.5-19.9-2.5-9-2.9-18.2-1.2-27.3-3.5-3.8-.7-7.5.2-11.3-.7s-7.6.1-11.4-.7c-8.8-1.9-17.7-.4-26.5-1.4a60.3,60.3,0,0,1-15.3-.2c-7.8.9-15.6.5-23.4,1-10.8-1.2-21.7,1.2-32.6,1.7-9.7-1.8-19.5,2-29.2,2.3s-17,2.8-25.4,5c-6,2-12.1,3.7-17.8,7.9-1.9,1.2-3.5-1.1-5-3.1-1.1-4-2.9-7.5-2.9-12.5-.1-8.7-.1-17.7,1.1-26l-1.2-7,2.7,2.5a82.3,82.3,0,0,1,.1-8.6c1.1,1.6,2.4,2.8,3.7,2.5,7.3-1,14.4-4.6,21.7-6,0-.8-.1-2.4-.1-3.2a14.1,14.1,0,0,0,.6,2.2l1.5.2.3-.4v-.2a.8.8,0,0,0,.2-.4c3.7,1.4,7.3-1.2,11-1.2,6.6-.6,13.1-2.8,19.7-3l.4-1.2c-.3-1.2-.8-1.4-1.5-.5l.5-1.8c-6.8-.2-13.5.8-20.3.5s-12.9-.2-19.4,1c-5.1-.5-10.2,1.8-15.3,1.5-3.6-.2-7.1,2.3-10.6,3.9s-4.4-2.7-5.9-6.3-1.8-10-2.4-15.1A61.2,61.2,0,0,1,1,102.1c-.3-2.8-.7-5.5-1-8.2.7-1,1.6-1.6,2.2-3.2C3.5,86.4,6.4,88,8,84.1l-2.8-.7C3,75.2,1.2,65.7,2,56a43.3,43.3,0,0,1,.8-18.3c.3-1.4.5-2.9.8-4.4.1,1.4.2,4.1.3,5.5,1.9-.8,3.8-1.6,5.7-2.6v1.4a27,27,0,0,0-3.9.8c2.3,3.1,4.9,1.2,7.3,1.2,5.8-1.2,11.6-2,17.4-3.2,3.8,1.3,7.5-2.6,11.3-1.2s5.2-.7,7.9-.9c10.6.4,21.2-2.6,31.9-1.5,21.8-1.5,43.6,1.9,65.4,2.7,4.9,0,9.7,1.8,14.6,1.5,7.6-.5,15.1,2.9,22.7,2.9,2.1-.1,4.3,2.1,6.3.3,4,2.4,8.2,1.8,12.2,2.6,7.5,1.9,15.1,2.2,22.6,3.5s14.7,2.7,22,4.3c4.7-.2,9.3,2.4,14,2.8,27.4,5.9,54.7,12.8,81.9,21a62.5,62.5,0,0,0,8.6,1.8c9.3,3.8,18.7,5.8,28,9.2,6.9.7,13.6,4.7,20.4,6.3s11.3,2.7,16.8,5.5c8.5,2.4,17,6.4,25.6,9.1s17.9,7.4,27,10.6c3.2,1.3,6.4,2.4,9.6,4s5.1,2,7.7,3.1,4.8,2.9,7.3,3.5l.8,2.7c-5.6-2.4-11.3-4.2-16.9-6v1.2c3.5,1.4,6.7,4.3,10.2,5.8-3,2-6.1-1-9.1-.5.8,1.2,1.7,2.3,2.6,3.5a12.1,12.1,0,0,0,3.7,4.5l-2.9,1.4c-2.9-.3-5.7-2.9-8.5-2.1,1.9,1,3.9,1.4,5.9,2.9-1.2,1.1-2.4,2.2-3.7,1.6-3.3-1.2-6.6.8-10,.8v2.5a21.2,21.2,0,0,1,6.3,3.3c-3.9.9-7.9-2-11.8-.7a22.5,22.5,0,0,0,6.9,4.1,13.6,13.6,0,0,0-.2,2c-3.3-1.1-6.6-2.2-9.8-3.1v2.3a6.2,6.2,0,0,1,3.6,3.3c-2.2.1-4.3-1-6.4-1.4l-.7,2c-1.1.7-1.7-2.3-2.5-3.3a31.8,31.8,0,0,0-4.3-2.5c.4.7,1.3,1.9,1.7,2.5l-1.4,2a3.8,3.8,0,0,0,4.1-.2c.4.9.9,1.8,1.4,2.7a32.5,32.5,0,0,1,5.2,1.2l2.6-2c-.4,1.9-.8,3.8-1.1,5.7a25.2,25.2,0,0,0,7.2-.7l.9,2,1.2-3.2c.1,1.3.2,4,.3,5.4.4-1.8.8-3.6,1.3-5.3-2.5-3.3-5.2-.2-7.8-.1-.2-1.8-.3-3.5-.4-5.2,2.9,1.6,6.1,3.2,8.9.1l-1.6-1.5c2.4-1.6,4.8.9,7.2,1.3s6.5,3.5,9.8,4.4a116,116,0,0,1,13.2,5.6v2.6c-5-1.9-10-4.3-15-6.5-3-2-6.2-1.4-9.1-4a7.6,7.6,0,0,0-4.6-1.8h.1c0,.7.2,2.1.2,2.8l2.2.5c-.4,2.1-.7,4.3-1,6.6.8-1.6,1.6-3.2,2.3-4.9,4-1.8,7.6,2.6,11.5,3.9-1,3-2.5,4.7-4.2,4.1V166a17.8,17.8,0,0,0-2.9,1.2c-.1,2.3,1,3.1,1.6,4.4a17.6,17.6,0,0,1,4.4,1.5v-3.7a16.1,16.1,0,0,1,3.1-.1,9.5,9.5,0,0,1-2.6,4.2,19.8,19.8,0,0,1,4.1.8c1.2,1.9,2.7,2.4,4.2,3.4l1,.4c.5,2.2,1.4,5.8,2.7,6.2a53.7,53.7,0,0,1-3.7,5.7c-4.6-1.2-9.2-3.8-13.6-6.6a9.4,9.4,0,0,0-1,1,26.9,26.9,0,0,0-3.2-1.3c1.6,3.6,4.6.5,5.7,5.9C484.8,190.3,487.6,191.3,490.2,193.2Zm-2.1-13a21.8,21.8,0,0,0,7.1,3.9C493.5,179.7,490.5,180.8,488.1,180.2Zm-10.8-4.7c2,3.1,4.6,4.2,7,2.8A14,14,0,0,0,477.3,175.5Zm.6-44.1c-.1-2-.6-2.4-1.4-1.1S477.1,132.7,477.9,131.4Zm-5.1-9.2h0a6.8,6.8,0,0,0,5.1,3.4c-.9-2.4-2.3-2.4-3.6-2.6l-.6-.3h-.3Zm-14.2,25.6c.1,2,.6,2.4,1.4,1.1S459.4,146.5,458.6,147.8Zm-8.7,3.7a5.4,5.4,0,0,0,5.7-.8C453.7,149.7,451.5,148.4,449.9,151.5ZM75.1,78.9c-3.2-1.2-6.4.2-9.6-.3-9.1.7-18.1.1-27.2,1.7a23.6,23.6,0,0,0-5.3,1c3.1,2.1,6.4.4,9.6-.3s7.5,2.1,11.1,0C60.9,80.1,68.1,81.2,75.1,78.9ZM78,132.2H76.4C76.4,134,78.2,134.6,78,132.2Zm15.2-1.1a89.6,89.6,0,0,0-14.6.6l-.2,2.2c3.7-1.3,7.4-.7,11.1-1.8-.1,1-.4,2.9-.5,3.9.4-1.4.7-2.8,1.1-4.2A4.9,4.9,0,0,0,93.2,131.1Zm224,26.2c-.7-3.9-3.9-7-4.5-1.3A25.4,25.4,0,0,0,317.2,157.3Zm22,4c-.4-2.1-2.3-2.8-2.6-.4S338.9,163.7,339.2,161.3Zm7.6,3.1c-.7-3.1-2.8-4.7-4-2A29.9,29.9,0,0,0,346.8,164.4Zm.4-1.7c-.9,1.5.2,5.1,1.1,3.4S348.2,160.9,347.2,162.7Zm90.2,45.2c1,3.4,3.1,2.5,4.7,3.5l-.2-2.3C440.4,208.7,438.9,208.2,437.4,207.9Zm6.5-4.9c.3-2,0-2.8-.9-2.5C442.7,202.5,443,203.3,443.9,203Zm-19.1,6.2a17.4,17.4,0,0,0,8.6,2.5,40.7,40.7,0,0,0-2.1-3.7,20.3,20.3,0,0,1,1.1-2.6,55.4,55.4,0,0,0-5.6-1.1h0c.2,1,.4,3,.5,4.1l-1.1.3h-.3Zm-53.2-41.7c.3-2.4-.1-3.1-1.2-2.4Q370,168.6,371.6,167.5Zm-15.8-3c-1.7-.1-3.5-1.1-5,1.2C352.5,166.9,354.4,167.9,355.8,164.5Zm13.1,4.4c-2.6-.8-5.1-1.6-7.7-1.3l-1.8.2h-.6c-1-1.8-2-2.5-3.2-1.4l2.7,1.3c-.1.6-.2,1.8-.3,2.5,1.9-3.3,4.6-1.2,6.6.3l3.6-.5Zm3.2,1.7c0-2-1.6-2-2.1-.8S371.6,171.8,372.1,170.6Zm25.1,3c0,4.9,2-2.2,0,0Zm8.7,2.2c.1.6.4,1.8.6,2.5l3.5-.7A9.9,9.9,0,0,0,405.9,175.8Zm23-19.4c-.3,2.3.1,3,1.3,2.1S430,155.4,428.9,156.4Zm-.3-8.2c-.4,1.8.9,3.5,1.6,2.3S429.2,147.1,428.6,148.2Zm13,1.4c-.4-2-1.7-2.5-2.4-1.2C438.4,151.3,441.4,152.6,441.6,149.6Zm.4,3.4a6.4,6.4,0,0,1,1.3,1C444,152,441.9,150.2,442,153Zm12.1,13.3c.1-3.5-2-1.3-2.8-1.9s-1.5-.7-2.2,0C450.6,166.4,452.4,166.4,454.1,166.3Zm4.3.4c.1,4.8,2-2.2,0,0Zm14.7,7.3v-1.3c-4.1-1.4-8.1-3.5-12.2-4.6v1.3C465,170.9,469,173.1,473.1,174Zm-4.2,7-2.4-3.3-3.1,1.3C465.2,179.8,467.1,180.4,468.9,181Zm4.8.2c-1.1-.3-2.3-.7-3.3.5s1,1.5,1.8,1.2S475,182.4,473.7,181.2Zm2.8,22c.1,4.8,1.9-2.4,0,0Zm-6.8-2.9c.2,4.7,2-2.3,0,0Z" fill="#ffeb4f"/><path d="M443.1,175.7a3.2,3.2,0,0,1,3.2,3.2v22.4a3.2,3.2,0,0,1-3.2,3.2h-67a3.2,3.2,0,0,1-3.2-3.2V178.9a3.2,3.2,0,0,1,3.2-3.2h67m-159.6,0h-67a3.2,3.2,0,0,0-3.2,3.2v22.4a3.2,3.2,0,0,0,3.2,3.2h67a3.2,3.2,0,0,0,3.2-3.2V178.9a3.2,3.2,0,0,0-3.2-3.2M98.4,140.6a3.2,3.2,0,0,0-3.2,3.2v22.3a3.2,3.2,0,0,0,3.2,3.2h67a3.2,3.2,0,0,0,3.2-3.2V143.8a3.2,3.2,0,0,0-3.2-3.2h-67m194.7-32V131a3.2,3.2,0,0,0,3.2,3.2h67a3.2,3.2,0,0,0,3.2-3.2V108.6a3.2,3.2,0,0,0-3.2-3.2h-67a3.2,3.2,0,0,0-3.2,3.2M56.9,99H85.6a3.2,3.2,0,0,0,3.2-3.2V73.5a3.2,3.2,0,0,0-3.2-3.2H56.9a3.2,3.2,0,0,0-3.2,3.2V95.8A3.2,3.2,0,0,0,56.9,99m76.6-60.7V60.7a3.2,3.2,0,0,0,3.2,3.2h67a3.2,3.2,0,0,0,3.2-3.2V38.3a3.2,3.2,0,0,0-3.2-3.2h-67a3.2,3.2,0,0,0-3.2,3.2" fill="#00c4cc"/><path d="M363.3,175.7a3.2,3.2,0,0,1,3.2,3.2v22.4a3.2,3.2,0,0,1-3.2,3.2h-67a3.2,3.2,0,0,1-3.2-3.2V178.9a3.2,3.2,0,0,1,3.2-3.2h67m-159.6,0h-67a3.2,3.2,0,0,0-3.2,3.2v22.4a3.2,3.2,0,0,0,3.2,3.2h67a3.2,3.2,0,0,0,3.2-3.2V178.9a3.2,3.2,0,0,0-3.2-3.2m-79.8,0h-67a3.2,3.2,0,0,0-3.2,3.2v22.4a3.2,3.2,0,0,0,3.2,3.2h67a3.2,3.2,0,0,0,3.2-3.2V178.9a3.2,3.2,0,0,0-3.2-3.2m319.2-35.1H417.6a3.2,3.2,0,0,0-3.2,3.2v22.3a3.2,3.2,0,0,0,3.2,3.2h25.5a3.2,3.2,0,0,0,3.2-3.2V143.8a3.2,3.2,0,0,0-3.2-3.2m-108.5,3.2v22.3a3.2,3.2,0,0,0,3.2,3.2h67a3.2,3.2,0,0,0,3.2-3.2V143.8a3.2,3.2,0,0,0-3.2-3.2h-67a3.2,3.2,0,0,0-3.2,3.2M258,169.3h67a3.2,3.2,0,0,0,3.2-3.2V143.8a3.2,3.2,0,0,0-3.2-3.2H258a3.2,3.2,0,0,0-3.2,3.2v22.3a3.2,3.2,0,0,0,3.2,3.2m-79.8,0h67a3.2,3.2,0,0,0,3.2-3.2V143.8a3.2,3.2,0,0,0-3.2-3.2h-67a3.2,3.2,0,0,0-3.2,3.2v22.3a3.2,3.2,0,0,0,3.2,3.2m-121.3,0H85.6a3.2,3.2,0,0,0,3.2-3.2V143.8a3.2,3.2,0,0,0-3.2-3.2H56.9a3.2,3.2,0,0,0-3.2,3.2v22.3a3.2,3.2,0,0,0,3.2,3.2m386.2-63.9h-67a3.2,3.2,0,0,0-3.2,3.2V131a3.2,3.2,0,0,0,3.2,3.2h67a3.2,3.2,0,0,0,3.2-3.2V108.6a3.2,3.2,0,0,0-3.2-3.2M286.7,131V108.6a3.2,3.2,0,0,0-3.2-3.2h-67a3.2,3.2,0,0,0-3.2,3.2V131a3.2,3.2,0,0,0,3.2,3.2h67a3.2,3.2,0,0,0,3.2-3.2m-79.8,0V108.6a3.2,3.2,0,0,0-3.2-3.2h-67a3.2,3.2,0,0,0-3.2,3.2V131a3.2,3.2,0,0,0,3.2,3.2h67a3.2,3.2,0,0,0,3.2-3.2m-150,3.2h67a3.2,3.2,0,0,0,3.2-3.2V108.6a3.2,3.2,0,0,0-3.2-3.2h-67a3.2,3.2,0,0,0-3.2,3.2V131a3.2,3.2,0,0,0,3.2,3.2M254.8,73.5V95.8A3.2,3.2,0,0,0,258,99h67a3.2,3.2,0,0,0,3.2-3.2V73.5a3.2,3.2,0,0,0-3.2-3.2H258a3.2,3.2,0,0,0-3.2,3.2M245.2,99a3.2,3.2,0,0,0,3.2-3.2V73.5a3.2,3.2,0,0,0-3.2-3.2h-67a3.2,3.2,0,0,0-3.2,3.2V95.8a3.2,3.2,0,0,0,3.2,3.2h67m-76.6-3.2V73.5a3.2,3.2,0,0,0-3.2-3.2h-67a3.2,3.2,0,0,0-3.2,3.2V95.8A3.2,3.2,0,0,0,98.4,99h67a3.2,3.2,0,0,0,3.2-3.2m47.9-31.9h67a3.2,3.2,0,0,0,3.2-3.2V38.3a3.2,3.2,0,0,0-3.2-3.2h-67a3.2,3.2,0,0,0-3.2,3.2V60.7a3.2,3.2,0,0,0,3.2,3.2m-159.6,0h67a3.2,3.2,0,0,0,3.2-3.2V38.3a3.2,3.2,0,0,0-3.2-3.2h-67a3.2,3.2,0,0,0-3.2,3.2V60.7a3.2,3.2,0,0,0,3.2,3.2M98.4,28.8h67a3.2,3.2,0,0,0,3.2-3.2V3.2A3.2,3.2,0,0,0,165.4,0h-67a3.2,3.2,0,0,0-3.2,3.2V25.6a3.2,3.2,0,0,0,3.2,3.2m-41.5,0H85.6a3.2,3.2,0,0,0,3.2-3.2V3.2A3.2,3.2,0,0,0,85.6,0H56.9a3.2,3.2,0,0,0-3.2,3.2V25.6a3.2,3.2,0,0,0,3.2,3.2"/></svg>